G04 #@! TF.FileFunction,Legend,Top*
%FSLAX46Y46*%
G04 Gerber Fmt 4.6, Leading zero omitted, Abs format (unit mm)*
G04 Created by KiCad (PCBNEW 4.0.5) date 05/25/17 00:15:28*
%MOMM*%
%LPD*%
G01*
G04 APERTURE LIST*
%ADD10C,0.100000*%
%ADD11C,0.120000*%
%ADD12C,0.150000*%
G04 APERTURE END LIST*
D10*
D11*
X80010000Y-106045000D02*
X80010000Y-94615000D01*
X80010000Y-94615000D02*
X80645000Y-93980000D01*
X80645000Y-93980000D02*
X92075000Y-93980000D01*
X92075000Y-93980000D02*
X92710000Y-94615000D01*
X92710000Y-94615000D02*
X92710000Y-106045000D01*
X92075000Y-106680000D02*
X80645000Y-106680000D01*
X80645000Y-106680000D02*
X80010000Y-106045000D01*
X92710000Y-106045000D02*
X92075000Y-106680000D01*
X139065000Y-134620000D02*
X127635000Y-134620000D01*
X127635000Y-134620000D02*
X127000000Y-133985000D01*
X127000000Y-133985000D02*
X127000000Y-122555000D01*
X127000000Y-122555000D02*
X127635000Y-121920000D01*
X127635000Y-121920000D02*
X139065000Y-121920000D01*
X139700000Y-122555000D02*
X139700000Y-133985000D01*
X139700000Y-133985000D02*
X139065000Y-134620000D01*
X139065000Y-121920000D02*
X139700000Y-122555000D01*
X85530000Y-82550000D02*
X87330000Y-82550000D01*
X86430000Y-81650000D02*
X86430000Y-83450000D01*
X83720000Y-73490000D02*
X83720000Y-91610000D01*
X113840000Y-73490000D02*
X113840000Y-91610000D01*
X83720000Y-73490000D02*
X85520000Y-73490000D01*
X85520000Y-73490000D02*
X86420000Y-74390000D01*
X86420000Y-74390000D02*
X87320000Y-73490000D01*
X87320000Y-73490000D02*
X113840000Y-73490000D01*
X83720000Y-91610000D02*
X85520000Y-91610000D01*
X85520000Y-91610000D02*
X86420000Y-90710000D01*
X86420000Y-90710000D02*
X87320000Y-91610000D01*
X87320000Y-91610000D02*
X113840000Y-91610000D01*
X82660000Y-82550000D02*
X83720000Y-82550000D01*
X114900000Y-82550000D02*
X113840000Y-82550000D01*
X119380000Y-127930000D02*
X119380000Y-126130000D01*
X118480000Y-127030000D02*
X120280000Y-127030000D01*
X114320000Y-129740000D02*
X124440000Y-129740000D01*
X114320000Y-109620000D02*
X124440000Y-109620000D01*
X114320000Y-129740000D02*
X114320000Y-127940000D01*
X114320000Y-127940000D02*
X115220000Y-127040000D01*
X115220000Y-127040000D02*
X114320000Y-126140000D01*
X114320000Y-126140000D02*
X114320000Y-109620000D01*
X124440000Y-129740000D02*
X124440000Y-127940000D01*
X124440000Y-127940000D02*
X123540000Y-127040000D01*
X123540000Y-127040000D02*
X124440000Y-126140000D01*
X124440000Y-126140000D02*
X124440000Y-109620000D01*
X119380000Y-131300000D02*
X119380000Y-129740000D01*
X119380000Y-108060000D02*
X119380000Y-109620000D01*
X135890000Y-83550000D02*
X135890000Y-85350000D01*
X136790000Y-84450000D02*
X134990000Y-84450000D01*
X144950000Y-81740000D02*
X126830000Y-81740000D01*
X144950000Y-111860000D02*
X126830000Y-111860000D01*
X144950000Y-81740000D02*
X144950000Y-83540000D01*
X144950000Y-83540000D02*
X144050000Y-84440000D01*
X144050000Y-84440000D02*
X144950000Y-85340000D01*
X144950000Y-85340000D02*
X144950000Y-111860000D01*
X126830000Y-81740000D02*
X126830000Y-83540000D01*
X126830000Y-83540000D02*
X127730000Y-84440000D01*
X127730000Y-84440000D02*
X126830000Y-85340000D01*
X126830000Y-85340000D02*
X126830000Y-111860000D01*
X135890000Y-80680000D02*
X135890000Y-81740000D01*
X135890000Y-112920000D02*
X135890000Y-111860000D01*
X113560000Y-95940000D02*
X109960000Y-95940000D01*
X113598478Y-95951522D02*
G75*
G02X111760000Y-100390000I-1838478J-1838478D01*
G01*
X109921522Y-95951522D02*
G75*
G03X111760000Y-100390000I1838478J-1838478D01*
G01*
X96630000Y-120720000D02*
X97110000Y-120720000D01*
X97110000Y-120720000D02*
X97110000Y-130740000D01*
X97110000Y-130740000D02*
X96630000Y-130740000D01*
X93870000Y-120720000D02*
X93390000Y-120720000D01*
X93390000Y-120720000D02*
X93390000Y-130740000D01*
X93390000Y-130740000D02*
X93870000Y-130740000D01*
X80530000Y-129710000D02*
X89650000Y-129710000D01*
X89650000Y-129710000D02*
X89650000Y-111590000D01*
X89650000Y-111590000D02*
X80530000Y-111590000D01*
X80530000Y-111590000D02*
X80530000Y-129710000D01*
X85090000Y-130700000D02*
X85090000Y-129710000D01*
X85090000Y-110600000D02*
X85090000Y-111590000D01*
X97480000Y-110080000D02*
X96150000Y-110080000D01*
X96150000Y-110080000D02*
X96150000Y-95660000D01*
X96150000Y-95660000D02*
X97480000Y-95660000D01*
X100640000Y-110080000D02*
X101970000Y-110080000D01*
X101970000Y-110080000D02*
X101970000Y-95660000D01*
X101970000Y-95660000D02*
X100640000Y-95660000D01*
X110860000Y-112170000D02*
X105040000Y-112170000D01*
X105040000Y-112170000D02*
X105040000Y-126590000D01*
X105040000Y-126590000D02*
X110860000Y-126590000D01*
X110860000Y-126590000D02*
X110860000Y-112170000D01*
X107950000Y-108260000D02*
X107950000Y-112170000D01*
X107950000Y-130500000D02*
X107950000Y-126590000D01*
D12*
X85621905Y-103322381D02*
X85621905Y-102322381D01*
X86002858Y-102322381D01*
X86098096Y-102370000D01*
X86145715Y-102417619D01*
X86193334Y-102512857D01*
X86193334Y-102655714D01*
X86145715Y-102750952D01*
X86098096Y-102798571D01*
X86002858Y-102846190D01*
X85621905Y-102846190D01*
X87145715Y-103322381D02*
X86574286Y-103322381D01*
X86860000Y-103322381D02*
X86860000Y-102322381D01*
X86764762Y-102465238D01*
X86669524Y-102560476D01*
X86574286Y-102608095D01*
X138882381Y-130278095D02*
X137882381Y-130278095D01*
X137882381Y-129897142D01*
X137930000Y-129801904D01*
X137977619Y-129754285D01*
X138072857Y-129706666D01*
X138215714Y-129706666D01*
X138310952Y-129754285D01*
X138358571Y-129801904D01*
X138406190Y-129897142D01*
X138406190Y-130278095D01*
X137977619Y-129325714D02*
X137930000Y-129278095D01*
X137882381Y-129182857D01*
X137882381Y-128944761D01*
X137930000Y-128849523D01*
X137977619Y-128801904D01*
X138072857Y-128754285D01*
X138168095Y-128754285D01*
X138310952Y-128801904D01*
X138882381Y-129373333D01*
X138882381Y-128754285D01*
X98613334Y-72847143D02*
X98565715Y-72894762D01*
X98422858Y-72942381D01*
X98327620Y-72942381D01*
X98184762Y-72894762D01*
X98089524Y-72799524D01*
X98041905Y-72704286D01*
X97994286Y-72513810D01*
X97994286Y-72370952D01*
X98041905Y-72180476D01*
X98089524Y-72085238D01*
X98184762Y-71990000D01*
X98327620Y-71942381D01*
X98422858Y-71942381D01*
X98565715Y-71990000D01*
X98613334Y-72037619D01*
X99565715Y-72942381D02*
X98994286Y-72942381D01*
X99280000Y-72942381D02*
X99280000Y-71942381D01*
X99184762Y-72085238D01*
X99089524Y-72180476D01*
X98994286Y-72228095D01*
X111253543Y-119846666D02*
X111301162Y-119894285D01*
X111348781Y-120037142D01*
X111348781Y-120132380D01*
X111301162Y-120275238D01*
X111205924Y-120370476D01*
X111110686Y-120418095D01*
X110920210Y-120465714D01*
X110777352Y-120465714D01*
X110586876Y-120418095D01*
X110491638Y-120370476D01*
X110396400Y-120275238D01*
X110348781Y-120132380D01*
X110348781Y-120037142D01*
X110396400Y-119894285D01*
X110444019Y-119846666D01*
X110444019Y-119465714D02*
X110396400Y-119418095D01*
X110348781Y-119322857D01*
X110348781Y-119084761D01*
X110396400Y-118989523D01*
X110444019Y-118941904D01*
X110539257Y-118894285D01*
X110634495Y-118894285D01*
X110777352Y-118941904D01*
X111348781Y-119513333D01*
X111348781Y-118894285D01*
X146307143Y-96966666D02*
X146354762Y-97014285D01*
X146402381Y-97157142D01*
X146402381Y-97252380D01*
X146354762Y-97395238D01*
X146259524Y-97490476D01*
X146164286Y-97538095D01*
X145973810Y-97585714D01*
X145830952Y-97585714D01*
X145640476Y-97538095D01*
X145545238Y-97490476D01*
X145450000Y-97395238D01*
X145402381Y-97252380D01*
X145402381Y-97157142D01*
X145450000Y-97014285D01*
X145497619Y-96966666D01*
X145402381Y-96633333D02*
X145402381Y-96014285D01*
X145783333Y-96347619D01*
X145783333Y-96204761D01*
X145830952Y-96109523D01*
X145878571Y-96061904D01*
X145973810Y-96014285D01*
X146211905Y-96014285D01*
X146307143Y-96061904D01*
X146354762Y-96109523D01*
X146402381Y-96204761D01*
X146402381Y-96490476D01*
X146354762Y-96585714D01*
X146307143Y-96633333D01*
X111664762Y-101897619D02*
X111569524Y-101850000D01*
X111474286Y-101754762D01*
X111331429Y-101611905D01*
X111236190Y-101564286D01*
X111140952Y-101564286D01*
X111188571Y-101802381D02*
X111093333Y-101754762D01*
X110998095Y-101659524D01*
X110950476Y-101469048D01*
X110950476Y-101135714D01*
X110998095Y-100945238D01*
X111093333Y-100850000D01*
X111188571Y-100802381D01*
X111379048Y-100802381D01*
X111474286Y-100850000D01*
X111569524Y-100945238D01*
X111617143Y-101135714D01*
X111617143Y-101469048D01*
X111569524Y-101659524D01*
X111474286Y-101754762D01*
X111379048Y-101802381D01*
X111188571Y-101802381D01*
X112569524Y-101802381D02*
X111998095Y-101802381D01*
X112283809Y-101802381D02*
X112283809Y-100802381D01*
X112188571Y-100945238D01*
X112093333Y-101040476D01*
X111998095Y-101088095D01*
X100782381Y-125896666D02*
X100306190Y-126230000D01*
X100782381Y-126468095D02*
X99782381Y-126468095D01*
X99782381Y-126087142D01*
X99830000Y-125991904D01*
X99877619Y-125944285D01*
X99972857Y-125896666D01*
X100115714Y-125896666D01*
X100210952Y-125944285D01*
X100258571Y-125991904D01*
X100306190Y-126087142D01*
X100306190Y-126468095D01*
X100782381Y-124944285D02*
X100782381Y-125515714D01*
X100782381Y-125230000D02*
X99782381Y-125230000D01*
X99925238Y-125325238D01*
X100020476Y-125420476D01*
X100068095Y-125515714D01*
X79982381Y-120816666D02*
X79506190Y-121150000D01*
X79982381Y-121388095D02*
X78982381Y-121388095D01*
X78982381Y-121007142D01*
X79030000Y-120911904D01*
X79077619Y-120864285D01*
X79172857Y-120816666D01*
X79315714Y-120816666D01*
X79410952Y-120864285D01*
X79458571Y-120911904D01*
X79506190Y-121007142D01*
X79506190Y-121388095D01*
X79077619Y-120435714D02*
X79030000Y-120388095D01*
X78982381Y-120292857D01*
X78982381Y-120054761D01*
X79030000Y-119959523D01*
X79077619Y-119911904D01*
X79172857Y-119864285D01*
X79268095Y-119864285D01*
X79410952Y-119911904D01*
X79982381Y-120483333D01*
X79982381Y-119864285D01*
X94432381Y-104306666D02*
X93956190Y-104640000D01*
X94432381Y-104878095D02*
X93432381Y-104878095D01*
X93432381Y-104497142D01*
X93480000Y-104401904D01*
X93527619Y-104354285D01*
X93622857Y-104306666D01*
X93765714Y-104306666D01*
X93860952Y-104354285D01*
X93908571Y-104401904D01*
X93956190Y-104497142D01*
X93956190Y-104878095D01*
X93432381Y-103973333D02*
X93432381Y-103354285D01*
X93813333Y-103687619D01*
X93813333Y-103544761D01*
X93860952Y-103449523D01*
X93908571Y-103401904D01*
X94003810Y-103354285D01*
X94241905Y-103354285D01*
X94337143Y-103401904D01*
X94384762Y-103449523D01*
X94432381Y-103544761D01*
X94432381Y-103830476D01*
X94384762Y-103925714D01*
X94337143Y-103973333D01*
X112312381Y-119546666D02*
X111836190Y-119880000D01*
X112312381Y-120118095D02*
X111312381Y-120118095D01*
X111312381Y-119737142D01*
X111360000Y-119641904D01*
X111407619Y-119594285D01*
X111502857Y-119546666D01*
X111645714Y-119546666D01*
X111740952Y-119594285D01*
X111788571Y-119641904D01*
X111836190Y-119737142D01*
X111836190Y-120118095D01*
X111645714Y-118689523D02*
X112312381Y-118689523D01*
X111264762Y-118927619D02*
X111979048Y-119165714D01*
X111979048Y-118546666D01*
M02*
