M48
;DRILL file {KiCad 4.0.5} date 05/27/17 17:49:40
;FORMAT={-:-/ absolute / metric / decimal}
FMAT,2
METRIC,TZ
T1C0.600
T2C1.143
T3C1.200
T4C1.400
%
G90
G05
M71
T1
X110.49Y-97.79
X111.76Y-97.79
X113.03Y-97.79
T2
X81.28Y-97.79
X91.44Y-102.87
X130.81Y-133.35
X135.89Y-123.19
T3
X81.28Y-82.55
X85.09Y-109.22
X85.09Y-132.08
X95.25Y-119.38
X95.25Y-132.08
X116.28Y-82.55
X119.38Y-106.68
X119.38Y-132.68
X135.89Y-79.3
X135.89Y-114.3
T4
X99.06Y-95.25
X99.06Y-110.49
X107.95Y-106.68
X107.95Y-132.08
T0
M30
